<svg xmlns="http://www.w3.org/2000/svg" xmlns:xlink="http://www.w3.org/1999/xlink" width="461" zoomAndPan="magnify" viewBox="0 0 345.75 135.750003" height="181" preserveAspectRatio="xMidYMid meet" version="1.0"><defs><g/><clipPath id="31d137d36a"><path d="M 0.441406 30 L 80.449219 30 L 80.449219 129 L 0.441406 129 Z M 0.441406 30 " clip-rule="nonzero"/></clipPath><clipPath id="b88f191ddc"><path d="M 32.179688 63.78125 L 71.855469 63.78125 L 71.855469 95.222656 L 32.179688 95.222656 Z M 32.179688 63.78125 " clip-rule="nonzero"/></clipPath><clipPath id="8d5cea25f1"><path d="M 4.179688 79.894531 L 31.878906 79.894531 L 31.878906 115 L 4.179688 115 Z M 4.179688 79.894531 " clip-rule="nonzero"/></clipPath><clipPath id="fb62601aa7"><path d="M 0.441406 43.652344 L 22 43.652344 L 22 66 L 0.441406 66 Z M 0.441406 43.652344 " clip-rule="nonzero"/></clipPath><clipPath id="8b5163f44d"><path d="M 1 44 L 37 44 L 37 79.589844 L 1 79.589844 Z M 1 44 " clip-rule="nonzero"/></clipPath></defs><g clip-path="url(#31d137d36a)"><path fill="#fffcef" d="M 80.167969 80.140625 C 80.011719 83.308594 77.902344 86.042969 75.300781 87.695312 C 54.8125 100.796875 34.328125 113.910156 13.832031 127.003906 C 11.464844 128.5625 8.453125 129.511719 5.660156 128.636719 C 2.242188 127.660156 0.460938 123.949219 0.597656 120.589844 C 0.5625 93.363281 0.574219 66.140625 0.546875 38.914062 C 0.507812 35.949219 1.753906 32.667969 4.558594 31.300781 C 7.464844 29.800781 10.972656 30.695312 13.59375 32.378906 C 34.097656 45.4375 54.597656 58.511719 75.097656 71.574219 C 78.035156 73.355469 80.425781 76.574219 80.167969 80.140625 Z M 80.167969 80.140625 " fill-opacity="1" fill-rule="nonzero"/></g><g clip-path="url(#b88f191ddc)"><path fill="#004aad" d="M 71.785156 78.34375 L 71.320312 77.035156 C 71.066406 76.316406 70.261719 75.722656 69.542969 75.722656 L 67.894531 75.722656 C 66.671875 72.300781 65.191406 68.15625 64.726562 67.183594 C 64.050781 65.664062 61.894531 64.988281 60.710938 64.648438 C 60.710938 64.648438 58.722656 63.886719 52.085938 63.886719 C 45.449219 63.886719 43.507812 64.648438 43.507812 64.648438 C 42.113281 65.113281 40.167969 65.789062 39.40625 67.226562 C 39.027344 67.945312 37.503906 72.171875 36.277344 75.722656 L 34.671875 75.722656 C 33.953125 75.722656 33.152344 76.316406 32.898438 77.035156 L 32.433594 78.34375 C 32.179688 79.0625 32.558594 79.65625 33.277344 79.65625 L 34.925781 79.65625 C 34.714844 80.246094 34.589844 80.585938 34.589844 80.585938 C 34.460938 80.796875 34.375 81.769531 34.375 82.0625 L 34.375 94.027344 C 34.375 94.785156 35.011719 95.421875 35.769531 95.421875 L 40.84375 95.421875 C 41.605469 95.421875 42.238281 94.785156 42.238281 94.027344 L 42.238281 91.488281 L 61.976562 91.488281 L 61.976562 94.027344 C 61.976562 94.785156 62.613281 95.421875 63.371094 95.421875 L 68.488281 95.421875 C 69.25 95.421875 69.882812 94.785156 69.882812 94.027344 L 69.882812 82.0625 C 69.882812 81.808594 69.796875 80.796875 69.671875 80.585938 C 69.671875 80.585938 69.542969 80.246094 69.332031 79.65625 L 70.9375 79.65625 C 71.617188 79.65625 71.996094 79.0625 71.785156 78.34375 Z M 42.238281 85.699219 L 40.546875 84.558594 C 37.417969 84.304688 37.039062 85.402344 36.363281 84.21875 L 36.363281 82.78125 C 36.363281 81.386719 37.167969 81.34375 38.054688 81.34375 C 38.898438 81.34375 40.589844 82.0625 41.730469 82.570312 C 42.957031 83.121094 43.84375 82.65625 44.308594 84.472656 C 44.265625 85.320312 43.800781 85.699219 42.238281 85.699219 Z M 39.28125 76.273438 C 40.335938 71.960938 42.113281 68.960938 42.367188 68.242188 C 42.535156 67.734375 42.113281 66.804688 52.128906 66.804688 C 62.148438 66.804688 61.597656 68.15625 61.640625 68.199219 C 62.105469 69.171875 63.964844 72.34375 64.9375 76.273438 C 64.9375 76.273438 61.175781 76.78125 52.59375 76.78125 C 44.015625 76.78125 39.28125 76.273438 39.28125 76.273438 Z M 59.949219 84.472656 C 61.9375 82.023438 61.300781 83.121094 62.527344 82.570312 C 63.625 82.0625 65.359375 81.34375 66.203125 81.34375 C 67.09375 81.34375 67.894531 81.386719 67.894531 82.78125 L 67.894531 84.21875 C 67.261719 85.359375 66.710938 84.347656 63.542969 84.640625 L 61.976562 85.65625 C 60.414062 85.699219 59.398438 85.105469 59.949219 84.472656 Z M 59.949219 84.472656 " fill-opacity="1" fill-rule="nonzero"/></g><g clip-path="url(#8d5cea25f1)"><path fill="#004aad" d="M 22.0625 105.535156 C 25.460938 100.183594 29.171875 94.246094 29.171875 91.011719 C 29.171875 84.878906 24.1875 79.894531 18.058594 79.894531 C 11.925781 79.894531 6.9375 84.878906 6.9375 91.011719 C 6.9375 94.058594 10.800781 100.320312 14.085938 105.550781 C 9.273438 106.003906 4.195312 107.378906 4.195312 109.96875 C 4.195312 111.378906 5.722656 112.566406 8.609375 113.410156 C 16.753906 115.78125 32.152344 114.445312 32.152344 109.96875 C 32.152344 107.335938 26.972656 105.96875 22.0625 105.535156 Z M 18.058594 109.117188 C 15.144531 104.230469 8.433594 94.480469 8.433594 91.011719 C 8.433594 85.703125 12.75 81.386719 18.058594 81.386719 C 23.363281 81.386719 27.679688 85.703125 27.679688 91.011719 C 27.679688 94.710938 21 104.1875 18.058594 109.117188 Z M 18.058594 109.117188 " fill-opacity="1" fill-rule="nonzero"/></g><path fill="#004aad" d="M 18.058594 85.238281 C 15.089844 85.238281 12.675781 87.652344 12.675781 90.621094 C 12.675781 93.585938 15.089844 96 18.058594 96 C 21.023438 96 23.4375 93.585938 23.4375 90.621094 C 23.4375 87.652344 21.023438 85.238281 18.058594 85.238281 Z M 18.058594 94.503906 C 15.914062 94.503906 14.171875 92.761719 14.171875 90.621094 C 14.171875 88.476562 15.914062 86.734375 18.058594 86.734375 C 20.199219 86.734375 21.941406 88.476562 21.941406 90.621094 C 21.941406 92.761719 20.199219 94.503906 18.058594 94.503906 Z M 18.058594 94.503906 " fill-opacity="1" fill-rule="nonzero"/><g clip-path="url(#fb62601aa7)"><path fill="#004aad" d="M 2.277344 56.121094 L 1.691406 56.421875 C 1.117188 56.722656 0.894531 57.433594 1.191406 58.007812 L 2.511719 60.546875 C 2.808594 61.121094 3.519531 61.347656 4.09375 61.046875 L 4.683594 60.742188 C 4.808594 60.675781 4.90625 60.730469 4.960938 60.785156 C 5.019531 60.839844 5.074219 60.933594 5.007812 61.066406 L 4.714844 61.65625 C 4.425781 62.238281 4.660156 62.945312 5.238281 63.234375 L 7.796875 64.511719 C 8.078125 64.652344 8.398438 64.675781 8.695312 64.574219 C 8.992188 64.476562 9.234375 64.265625 9.375 63.984375 L 9.667969 63.394531 C 9.734375 63.265625 9.839844 63.253906 9.921875 63.265625 C 10 63.277344 10.097656 63.320312 10.125 63.464844 L 10.230469 64.113281 C 10.28125 64.421875 10.453125 64.695312 10.707031 64.878906 C 10.910156 65.019531 11.144531 65.097656 11.386719 65.097656 C 11.453125 65.097656 11.519531 65.089844 11.582031 65.082031 L 14.40625 64.613281 C 14.714844 64.558594 14.988281 64.390625 15.171875 64.136719 C 15.351562 63.878906 15.425781 63.570312 15.375 63.257812 L 15.265625 62.609375 C 15.242188 62.46875 15.320312 62.394531 15.390625 62.355469 C 15.464844 62.320312 15.570312 62.296875 15.671875 62.398438 L 16.140625 62.859375 C 16.601562 63.316406 17.347656 63.308594 17.804688 62.847656 L 19.8125 60.808594 C 20.265625 60.34375 20.261719 59.597656 19.796875 59.144531 L 19.332031 58.683594 C 19.226562 58.582031 19.25 58.476562 19.285156 58.40625 C 19.320312 58.332031 19.394531 58.253906 19.535156 58.273438 L 20.183594 58.371094 C 20.496094 58.417969 20.804688 58.339844 21.058594 58.15625 C 21.3125 57.96875 21.476562 57.695312 21.523438 57.382812 L 21.949219 54.554688 C 22.042969 53.914062 21.601562 53.3125 20.960938 53.214844 L 20.308594 53.117188 C 20.167969 53.097656 20.121094 53 20.109375 52.917969 C 20.09375 52.839844 20.105469 52.734375 20.234375 52.664062 L 20.816406 52.363281 C 21.097656 52.21875 21.300781 51.972656 21.394531 51.675781 C 21.492188 51.375 21.464844 51.054688 21.320312 50.777344 L 20 48.238281 C 19.699219 47.664062 18.988281 47.4375 18.414062 47.738281 L 17.828125 48.042969 C 17.699219 48.109375 17.605469 48.054688 17.546875 48 C 17.492188 47.941406 17.4375 47.847656 17.503906 47.71875 L 17.796875 47.128906 C 17.9375 46.847656 17.960938 46.53125 17.859375 46.234375 C 17.761719 45.933594 17.550781 45.695312 17.269531 45.554688 L 14.710938 44.277344 C 14.433594 44.136719 14.113281 44.113281 13.816406 44.210938 C 13.515625 44.3125 13.277344 44.519531 13.136719 44.800781 L 12.839844 45.390625 C 12.773438 45.523438 12.667969 45.535156 12.589844 45.523438 C 12.507812 45.511719 12.410156 45.46875 12.386719 45.324219 L 12.277344 44.671875 C 12.226562 44.363281 12.058594 44.089844 11.800781 43.910156 C 11.546875 43.726562 11.234375 43.652344 10.925781 43.707031 L 8.105469 44.175781 C 7.792969 44.226562 7.523438 44.394531 7.339844 44.652344 C 7.15625 44.90625 7.085938 45.21875 7.136719 45.527344 L 7.246094 46.175781 C 7.269531 46.320312 7.1875 46.390625 7.117188 46.429688 C 7.046875 46.464844 6.941406 46.488281 6.835938 46.386719 L 6.367188 45.925781 C 5.90625 45.472656 5.160156 45.476562 4.707031 45.9375 L 2.699219 47.980469 C 2.242188 48.441406 2.25 49.1875 2.710938 49.640625 L 3.179688 50.101562 C 3.28125 50.203125 3.261719 50.308594 3.226562 50.382812 C 3.191406 50.453125 3.117188 50.53125 2.972656 50.511719 L 2.324219 50.414062 C 1.6875 50.316406 1.085938 50.761719 0.988281 51.402344 L 0.5625 54.234375 C 0.464844 54.875 0.910156 55.472656 1.550781 55.570312 L 2.199219 55.667969 C 2.34375 55.691406 2.390625 55.789062 2.402344 55.867188 C 2.414062 55.945312 2.40625 56.054688 2.277344 56.121094 Z M 2.398438 54.34375 L 1.910156 54.273438 L 2.285156 51.761719 L 2.773438 51.835938 C 3.464844 51.9375 4.109375 51.601562 4.421875 50.980469 C 4.734375 50.355469 4.613281 49.636719 4.117188 49.148438 L 3.765625 48.800781 L 5.546875 46.992188 L 5.898438 47.339844 C 6.394531 47.828125 7.117188 47.9375 7.734375 47.617188 C 8.351562 47.292969 8.679688 46.644531 8.5625 45.957031 L 8.484375 45.46875 L 10.984375 45.050781 L 11.066406 45.542969 C 11.179688 46.230469 11.699219 46.742188 12.390625 46.847656 C 13.078125 46.949219 13.726562 46.613281 14.035156 45.992188 L 14.257812 45.542969 L 16.527344 46.675781 L 16.304688 47.121094 C 15.996094 47.746094 16.113281 48.464844 16.609375 48.953125 C 17.105469 49.441406 17.828125 49.550781 18.445312 49.226562 L 18.886719 49 L 20.058594 51.25 L 19.617188 51.480469 C 19 51.800781 18.675781 52.453125 18.789062 53.140625 C 18.902344 53.828125 19.421875 54.335938 20.109375 54.441406 L 20.601562 54.515625 L 20.222656 57.027344 L 19.734375 56.953125 C 19.046875 56.847656 18.398438 57.183594 18.089844 57.808594 C 17.777344 58.429688 17.898438 59.148438 18.394531 59.636719 L 18.746094 59.984375 L 16.964844 61.792969 L 16.609375 61.445312 C 16.113281 60.957031 15.394531 60.847656 14.777344 61.171875 C 14.15625 61.492188 13.832031 62.144531 13.945312 62.832031 L 14.027344 63.320312 L 11.523438 63.734375 L 11.441406 63.246094 C 11.328125 62.558594 10.808594 62.046875 10.121094 61.941406 C 10.035156 61.929688 9.953125 61.925781 9.875 61.925781 C 9.28125 61.925781 8.746094 62.25 8.472656 62.796875 L 8.25 63.242188 L 5.980469 62.109375 L 6.207031 61.664062 C 6.515625 61.039062 6.398438 60.320312 5.902344 59.832031 C 5.402344 59.34375 4.683594 59.234375 4.066406 59.554688 L 3.621094 59.785156 L 2.453125 57.535156 L 2.890625 57.308594 C 3.511719 56.988281 3.835938 56.335938 3.722656 55.648438 C 3.605469 54.960938 3.089844 54.449219 2.398438 54.34375 Z M 2.398438 54.34375 " fill-opacity="1" fill-rule="nonzero"/></g><path fill="#004aad" d="M 8.554688 59.800781 C 9.40625 60.226562 10.324219 60.441406 11.25 60.441406 C 11.894531 60.441406 12.539062 60.339844 13.167969 60.128906 C 14.699219 59.617188 15.941406 58.539062 16.664062 57.09375 C 17.386719 55.652344 17.5 54.011719 16.992188 52.480469 C 16.480469 50.949219 15.402344 49.707031 13.957031 48.984375 C 12.511719 48.261719 10.875 48.148438 9.339844 48.65625 C 7.808594 49.167969 6.570312 50.246094 5.847656 51.691406 C 4.355469 54.671875 5.570312 58.3125 8.554688 59.800781 Z M 7.042969 52.289062 C 7.867188 50.640625 9.535156 49.683594 11.261719 49.683594 C 11.96875 49.683594 12.6875 49.84375 13.359375 50.179688 C 14.484375 50.742188 15.324219 51.710938 15.722656 52.902344 C 16.121094 54.097656 16.03125 55.371094 15.46875 56.496094 C 14.90625 57.621094 13.9375 58.460938 12.746094 58.859375 C 11.550781 59.257812 10.277344 59.167969 9.152344 58.605469 C 6.828125 57.445312 5.882812 54.613281 7.042969 52.289062 Z M 7.042969 52.289062 " fill-opacity="1" fill-rule="nonzero"/><g clip-path="url(#8b5163f44d)"><path fill="#004aad" d="M 36.34375 49.601562 C 36.273438 49.289062 36.039062 49.039062 35.726562 48.949219 C 35.417969 48.859375 35.085938 48.945312 34.859375 49.171875 L 31.121094 52.910156 L 28.699219 52.019531 L 27.808594 49.597656 L 31.546875 45.859375 C 31.773438 45.632812 31.859375 45.296875 31.769531 44.988281 C 31.679688 44.679688 31.429688 44.445312 31.113281 44.371094 C 28.808594 43.851562 26.425781 44.523438 24.738281 46.171875 C 23.636719 47.246094 22.9375 48.621094 22.722656 50.152344 C 22.667969 50.515625 22.921875 50.855469 23.289062 50.90625 C 23.65625 50.960938 23.992188 50.707031 24.046875 50.339844 C 24.222656 49.105469 24.78125 47.996094 25.671875 47.128906 C 26.824219 46.003906 28.378906 45.441406 29.960938 45.550781 L 26.738281 48.777344 C 26.445312 49.070312 26.347656 49.507812 26.492188 49.890625 L 27.488281 52.601562 C 27.59375 52.894531 27.824219 53.121094 28.117188 53.230469 L 30.828125 54.226562 C 31.214844 54.367188 31.648438 54.273438 31.941406 53.980469 L 35.167969 50.753906 C 35.28125 52.359375 34.699219 53.9375 33.539062 55.097656 C 32.277344 56.359375 30.46875 56.949219 28.699219 56.667969 C 27.484375 56.476562 26.238281 56.882812 25.363281 57.757812 L 14.613281 68.507812 C 13.738281 69.382812 13.332031 70.625 13.519531 71.828125 C 13.804688 73.632812 13.203125 75.464844 11.910156 76.726562 C 10.753906 77.851562 9.199219 78.414062 7.617188 78.304688 L 10.84375 75.078125 C 11.132812 74.789062 11.230469 74.351562 11.085938 73.964844 L 10.089844 71.253906 C 9.984375 70.960938 9.753906 70.734375 9.464844 70.625 L 6.75 69.628906 C 6.367188 69.488281 5.929688 69.585938 5.640625 69.875 L 2.414062 73.101562 C 2.300781 71.496094 2.878906 69.917969 4.039062 68.757812 C 4.835938 67.960938 5.839844 67.429688 6.945312 67.21875 C 7.308594 67.148438 7.542969 66.800781 7.476562 66.4375 C 7.40625 66.074219 7.054688 65.835938 6.691406 65.90625 C 5.328125 66.164062 4.082031 66.824219 3.09375 67.8125 C 1.402344 69.507812 0.707031 71.914062 1.234375 74.253906 C 1.304688 74.566406 1.542969 74.816406 1.851562 74.90625 C 2.160156 74.996094 2.492188 74.910156 2.722656 74.683594 L 6.457031 70.945312 L 8.878906 71.835938 L 9.769531 74.261719 L 6.035156 77.996094 C 5.808594 78.222656 5.722656 78.558594 5.808594 78.867188 C 5.898438 79.175781 6.148438 79.414062 6.464844 79.484375 C 6.976562 79.597656 7.496094 79.65625 8.007812 79.65625 C 9.796875 79.65625 11.53125 78.964844 12.84375 77.683594 C 14.449219 76.117188 15.195312 73.851562 14.84375 71.621094 C 14.71875 70.835938 14.984375 70.027344 15.558594 69.453125 L 26.308594 58.703125 C 26.882812 58.128906 27.699219 57.863281 28.488281 57.988281 C 30.679688 58.335938 32.917969 57.609375 34.484375 56.042969 C 36.179688 54.351562 36.875 51.941406 36.34375 49.601562 Z M 36.34375 49.601562 " fill-opacity="1" fill-rule="nonzero"/></g><g fill="#fffcef" fill-opacity="1"><g transform="translate(80.459112, 94.733963)"><g><path d="M 27.476562 -37.625 L 27.476562 -45.730469 L 4.207031 -45.730469 L 4.207031 0 L 12.6875 0 L 12.6875 -18.75 L 26.792969 -18.75 L 26.792969 -26.855469 L 12.6875 -26.855469 L 12.6875 -37.625 Z M 27.476562 -37.625 "/></g></g></g><g fill="#fffcef" fill-opacity="1"><g transform="translate(110.16063, 94.733963)"><g><path d="M 11.570312 0 L 11.570312 -45.730469 L 3.339844 -45.730469 L 3.339844 0 Z M 11.570312 0 "/></g></g></g><g fill="#fffcef" fill-opacity="1"><g transform="translate(125.01139, 94.733963)"><g><path d="M 37.625 -16.644531 C 37.625 -27.289062 30.136719 -35.085938 19.925781 -35.085938 C 9.839844 -35.085938 1.855469 -27.105469 1.855469 -17.015625 C 1.855469 -6.992188 9.960938 0.804688 20.421875 0.804688 C 27.351562 0.804688 34.46875 -3.09375 36.757812 -10.148438 L 27.785156 -10.148438 C 25.679688 -7.671875 23.636719 -6.746094 20.234375 -6.746094 C 15.347656 -6.746094 11.757812 -9.34375 10.765625 -13.488281 L 37.3125 -13.488281 C 37.5625 -14.664062 37.625 -15.410156 37.625 -16.644531 Z M 29.515625 -20.730469 L 10.519531 -20.730469 C 11.820312 -25.125 15.160156 -27.535156 20.050781 -27.535156 C 25.125 -27.535156 28.464844 -25.125 29.515625 -20.730469 Z M 29.515625 -20.730469 "/></g></g></g><g fill="#fffcef" fill-opacity="1"><g transform="translate(164.613407, 94.733963)"><g><path d="M 37.625 -16.644531 C 37.625 -27.289062 30.136719 -35.085938 19.925781 -35.085938 C 9.839844 -35.085938 1.855469 -27.105469 1.855469 -17.015625 C 1.855469 -6.992188 9.960938 0.804688 20.421875 0.804688 C 27.351562 0.804688 34.46875 -3.09375 36.757812 -10.148438 L 27.785156 -10.148438 C 25.679688 -7.671875 23.636719 -6.746094 20.234375 -6.746094 C 15.347656 -6.746094 11.757812 -9.34375 10.765625 -13.488281 L 37.3125 -13.488281 C 37.5625 -14.664062 37.625 -15.410156 37.625 -16.644531 Z M 29.515625 -20.730469 L 10.519531 -20.730469 C 11.820312 -25.125 15.160156 -27.535156 20.050781 -27.535156 C 25.125 -27.535156 28.464844 -25.125 29.515625 -20.730469 Z M 29.515625 -20.730469 "/></g></g></g><g fill="#fffcef" fill-opacity="1"><g transform="translate(204.215424, 94.733963)"><g><path d="M 17.761719 -26.792969 L 17.761719 -34.28125 L 12.808594 -34.28125 L 12.808594 -45.730469 L 4.578125 -45.730469 L 4.578125 -34.28125 L 0.558594 -34.28125 L 0.558594 -26.792969 L 4.578125 -26.792969 L 4.578125 0 L 12.808594 0 L 12.808594 -26.792969 Z M 17.761719 -26.792969 "/></g></g></g><g fill="#fffcef" fill-opacity="1"><g transform="translate(222.77887, 94.733963)"><g><path d="M 51.980469 0 L 51.980469 -45.730469 L 40.347656 -45.730469 L 28.15625 -11.078125 L 15.839844 -45.730469 L 4.207031 -45.730469 L 4.207031 0 L 12.6875 0 L 12.6875 -34.28125 L 24.628906 0 L 31.558594 0 L 43.503906 -34.28125 L 43.503906 0 Z M 51.980469 0 "/></g></g></g><g fill="#fffcef" fill-opacity="1"><g transform="translate(278.46922, 94.733963)"><g><path d="M 30.507812 -13.863281 C 30.507812 -20.050781 27.96875 -24.070312 18.6875 -27.535156 C 14.355469 -29.144531 14.234375 -29.207031 13.613281 -29.578125 C 11.941406 -30.632812 11.078125 -32.054688 11.078125 -33.726562 C 11.078125 -36.449219 12.996094 -38.367188 15.78125 -38.367188 C 18.625 -38.367188 20.359375 -36.632812 20.605469 -33.539062 L 29.394531 -33.539062 C 28.960938 -41.585938 23.207031 -46.535156 15.839844 -46.535156 C 8.476562 -46.535156 2.539062 -40.78125 2.539062 -33.539062 C 2.539062 -27.785156 5.941406 -23.390625 12.066406 -21.101562 C 18.132812 -18.8125 18.625 -18.625 19.988281 -17.574219 C 21.347656 -16.523438 22.089844 -14.789062 22.089844 -12.933594 C 22.089844 -9.652344 19.554688 -7.363281 15.902344 -7.363281 C 12.128906 -7.363281 10.085938 -9.21875 9.714844 -13.058594 L 0.867188 -13.058594 C 1.609375 -4.394531 7.859375 0.804688 15.902344 0.804688 C 24.132812 0.804688 30.507812 -5.570312 30.507812 -13.863281 Z M 30.507812 -13.863281 "/></g></g></g><g fill="#fffcef" fill-opacity="1"><g transform="translate(83.453597, 114.502733)"><g><path d="M 2.597656 -8.660156 L 7.667969 -8.660156 L 7.667969 -9.640625 L 1.398438 -9.640625 L 1.398438 0 L 2.597656 0 L 2.597656 -4.332031 L 7.109375 -4.332031 L 7.109375 -5.308594 L 2.597656 -5.308594 Z M 2.597656 -8.660156 "/></g></g></g><g fill="#fffcef" fill-opacity="1"><g transform="translate(91.693993, 114.502733)"><g><path d="M 2.179688 -10.265625 L 0.976562 -10.265625 L 0.976562 -2.082031 C 0.976562 -1.675781 0.976562 -1.355469 0.992188 -1.105469 C 1.035156 -0.167969 1.550781 0.0546875 2.25 0.0546875 C 2.527344 0.0546875 2.835938 0.0429688 3.101562 0 L 3.101562 -0.867188 C 2.445312 -0.796875 2.222656 -0.949219 2.191406 -1.425781 C 2.179688 -1.664062 2.179688 -1.898438 2.179688 -2.125 Z M 2.179688 -10.265625 "/></g></g></g><g fill="#fffcef" fill-opacity="1"><g transform="translate(95.465118, 114.502733)"><g><path d="M 7.109375 -3.910156 C 7.109375 -6.078125 5.980469 -7.597656 3.9375 -7.597656 C 1.914062 -7.597656 0.417969 -6.078125 0.417969 -3.675781 C 0.417969 -1.0625 1.859375 0.195312 3.785156 0.195312 C 5.308594 0.195312 6.71875 -0.601562 7.011719 -2.390625 L 5.753906 -2.390625 C 5.585938 -1.328125 4.804688 -0.726562 3.839844 -0.726562 C 2.75 -0.726562 1.828125 -1.382812 1.71875 -3.339844 L 7.082031 -3.339844 C 7.109375 -3.605469 7.109375 -3.800781 7.109375 -3.910156 Z M 3.910156 -6.675781 C 5.125 -6.675781 5.785156 -5.796875 5.894531 -4.261719 L 1.730469 -4.261719 C 1.871094 -5.839844 2.738281 -6.675781 3.910156 -6.675781 Z M 3.910156 -6.675781 "/></g></g></g><g fill="#fffcef" fill-opacity="1"><g transform="translate(103.454115, 114.502733)"><g><path d="M 7.109375 -3.910156 C 7.109375 -6.078125 5.980469 -7.597656 3.9375 -7.597656 C 1.914062 -7.597656 0.417969 -6.078125 0.417969 -3.675781 C 0.417969 -1.0625 1.859375 0.195312 3.785156 0.195312 C 5.308594 0.195312 6.71875 -0.601562 7.011719 -2.390625 L 5.753906 -2.390625 C 5.585938 -1.328125 4.804688 -0.726562 3.839844 -0.726562 C 2.75 -0.726562 1.828125 -1.382812 1.71875 -3.339844 L 7.082031 -3.339844 C 7.109375 -3.605469 7.109375 -3.800781 7.109375 -3.910156 Z M 3.910156 -6.675781 C 5.125 -6.675781 5.785156 -5.796875 5.894531 -4.261719 L 1.730469 -4.261719 C 1.871094 -5.839844 2.738281 -6.675781 3.910156 -6.675781 Z M 3.910156 -6.675781 "/></g></g></g><g fill="#fffcef" fill-opacity="1"><g transform="translate(111.443111, 114.502733)"><g><path d="M 2.472656 -6.425781 L 3.855469 -6.425781 L 3.855469 -7.347656 L 2.472656 -7.347656 L 2.472656 -9.066406 L 1.269531 -9.066406 L 1.269531 -7.347656 L 0.28125 -7.347656 L 0.28125 -6.425781 L 1.269531 -6.425781 L 1.269531 -2.109375 C 1.269531 -1.691406 1.269531 -1.382812 1.285156 -1.1875 C 1.355469 -0.265625 1.828125 0.113281 2.75 0.113281 C 3.085938 0.113281 3.421875 0.0976562 3.773438 0.0429688 L 3.773438 -0.839844 C 2.835938 -0.726562 2.542969 -0.878906 2.488281 -1.59375 C 2.472656 -1.789062 2.472656 -1.914062 2.472656 -2.164062 Z M 2.472656 -6.425781 "/></g></g></g><g fill="#fffcef" fill-opacity="1"><g transform="translate(116.136019, 114.502733)"><g/></g></g><g fill="#fffcef" fill-opacity="1"><g transform="translate(119.474187, 114.502733)"><g><path d="M 11.007812 -9.640625 L 9.066406 -9.640625 L 6.230469 -1.019531 L 3.378906 -9.640625 L 1.398438 -9.640625 L 1.398438 0 L 2.597656 0 L 2.597656 -4.960938 C 2.597656 -6.144531 2.597656 -7.472656 2.570312 -8.519531 C 2.878906 -7.488281 3.324219 -6.144531 3.714844 -5 L 5.449219 0 L 6.957031 0 L 8.660156 -4.972656 C 9.066406 -6.144531 9.511719 -7.5 9.835938 -8.550781 C 9.804688 -7.5 9.804688 -6.160156 9.804688 -4.960938 L 9.804688 0 L 11.007812 0 Z M 11.007812 -9.640625 "/></g></g></g><g fill="#fffcef" fill-opacity="1"><g transform="translate(131.890553, 114.502733)"><g><path d="M 5.28125 0 L 6.480469 0 C 6.371094 -0.824219 6.34375 -1.328125 6.34375 -1.886719 L 6.34375 -4.664062 C 6.34375 -4.988281 6.328125 -5.351562 6.300781 -5.644531 C 6.175781 -6.859375 5.433594 -7.597656 3.675781 -7.597656 C 2.039062 -7.597656 0.9375 -6.691406 0.824219 -5.113281 L 2.082031 -5.113281 C 2.164062 -6.132812 2.667969 -6.675781 3.675781 -6.675781 C 4.664062 -6.675781 5.058594 -6.230469 5.113281 -5.546875 C 5.140625 -5.265625 5.140625 -4.972656 5.140625 -4.652344 L 5.140625 -4.457031 L 4.664062 -4.457031 C 1.761719 -4.457031 0.503906 -3.589844 0.503906 -1.914062 C 0.503906 -0.542969 1.550781 0.195312 2.890625 0.195312 C 3.605469 0.195312 4.246094 0.0820312 4.75 -0.265625 L 5.15625 -1.0625 Z M 3.296875 -0.726562 C 2.390625 -0.726562 1.816406 -1.117188 1.816406 -2.011719 C 1.816406 -3.28125 3.101562 -3.714844 5.140625 -3.5625 L 5.140625 -2.808594 C 5.140625 -1.464844 4.414062 -0.726562 3.296875 -0.726562 Z M 3.296875 -0.726562 "/></g></g></g><g fill="#fffcef" fill-opacity="1"><g transform="translate(139.628153, 114.502733)"><g><path d="M 7.265625 -5.433594 C 7.152344 -6.734375 6.246094 -7.597656 4.625 -7.597656 C 3.871094 -7.597656 3.324219 -7.472656 2.695312 -6.984375 L 2.234375 -6.132812 L 2.234375 -7.402344 L 1.035156 -7.402344 L 1.035156 0 L 2.234375 0 L 2.234375 -3.253906 C 2.234375 -5.785156 3.214844 -6.648438 4.371094 -6.648438 C 5.519531 -6.648438 5.992188 -6.007812 6.0625 -5.140625 C 6.089844 -4.761719 6.089844 -4.457031 6.089844 -4.078125 L 6.089844 0 L 7.292969 0 L 7.292969 -4.164062 C 7.292969 -4.761719 7.292969 -5.058594 7.265625 -5.433594 Z M 7.265625 -5.433594 "/></g></g></g><g fill="#fffcef" fill-opacity="1"><g transform="translate(148.231678, 114.502733)"><g><path d="M 5.28125 0 L 6.480469 0 C 6.371094 -0.824219 6.34375 -1.328125 6.34375 -1.886719 L 6.34375 -4.664062 C 6.34375 -4.988281 6.328125 -5.351562 6.300781 -5.644531 C 6.175781 -6.859375 5.433594 -7.597656 3.675781 -7.597656 C 2.039062 -7.597656 0.9375 -6.691406 0.824219 -5.113281 L 2.082031 -5.113281 C 2.164062 -6.132812 2.667969 -6.675781 3.675781 -6.675781 C 4.664062 -6.675781 5.058594 -6.230469 5.113281 -5.546875 C 5.140625 -5.265625 5.140625 -4.972656 5.140625 -4.652344 L 5.140625 -4.457031 L 4.664062 -4.457031 C 1.761719 -4.457031 0.503906 -3.589844 0.503906 -1.914062 C 0.503906 -0.542969 1.550781 0.195312 2.890625 0.195312 C 3.605469 0.195312 4.246094 0.0820312 4.75 -0.265625 L 5.15625 -1.0625 Z M 3.296875 -0.726562 C 2.390625 -0.726562 1.816406 -1.117188 1.816406 -2.011719 C 1.816406 -3.28125 3.101562 -3.714844 5.140625 -3.5625 L 5.140625 -2.808594 C 5.140625 -1.464844 4.414062 -0.726562 3.296875 -0.726562 Z M 3.296875 -0.726562 "/></g></g></g><g fill="#fffcef" fill-opacity="1"><g transform="translate(155.969279, 114.502733)"><g><path d="M 7.5 -7.402344 L 6.300781 -7.402344 L 6.300781 -6.382812 L 5.8125 -7.109375 C 5.433594 -7.417969 4.652344 -7.597656 4.039062 -7.597656 C 2.125 -7.597656 0.417969 -6.328125 0.417969 -3.589844 C 0.417969 -1.425781 1.621094 0.195312 3.785156 0.195312 C 4.539062 0.195312 5.324219 -0.0429688 5.742188 -0.390625 L 6.300781 -1.1875 L 6.300781 -1.0625 C 6.300781 -0.839844 6.300781 -0.601562 6.285156 -0.25 C 6.230469 1.171875 5.433594 2.011719 3.96875 2.011719 C 2.695312 2.011719 1.96875 1.382812 1.871094 0.476562 L 1.859375 0.347656 L 0.644531 0.347656 L 0.65625 0.488281 C 0.808594 2.054688 1.859375 2.933594 3.96875 2.933594 C 6.105469 2.933594 7.417969 1.789062 7.488281 -0.378906 C 7.5 -0.78125 7.5 -1.355469 7.5 -1.816406 Z M 3.96875 -0.726562 C 2.488281 -0.726562 1.730469 -2.054688 1.730469 -3.730469 C 1.730469 -5.671875 2.738281 -6.675781 4.039062 -6.675781 C 5.097656 -6.675781 6.300781 -5.949219 6.300781 -4.039062 L 6.300781 -3.632812 C 6.300781 -1.507812 5.195312 -0.726562 3.96875 -0.726562 Z M 3.96875 -0.726562 "/></g></g></g><g fill="#fffcef" fill-opacity="1"><g transform="translate(164.880072, 114.502733)"><g><path d="M 7.109375 -3.910156 C 7.109375 -6.078125 5.980469 -7.597656 3.9375 -7.597656 C 1.914062 -7.597656 0.417969 -6.078125 0.417969 -3.675781 C 0.417969 -1.0625 1.859375 0.195312 3.785156 0.195312 C 5.308594 0.195312 6.71875 -0.601562 7.011719 -2.390625 L 5.753906 -2.390625 C 5.585938 -1.328125 4.804688 -0.726562 3.839844 -0.726562 C 2.75 -0.726562 1.828125 -1.382812 1.71875 -3.339844 L 7.082031 -3.339844 C 7.109375 -3.605469 7.109375 -3.800781 7.109375 -3.910156 Z M 3.910156 -6.675781 C 5.125 -6.675781 5.785156 -5.796875 5.894531 -4.261719 L 1.730469 -4.261719 C 1.871094 -5.839844 2.738281 -6.675781 3.910156 -6.675781 Z M 3.910156 -6.675781 "/></g></g></g><g fill="#fffcef" fill-opacity="1"><g transform="translate(172.869071, 114.502733)"><g><path d="M 10.882812 -5.796875 C 10.714844 -6.816406 9.960938 -7.597656 8.632812 -7.597656 C 7.976562 -7.597656 7.445312 -7.472656 7.070312 -7.167969 L 6.410156 -6.214844 C 6.132812 -7.027344 5.40625 -7.597656 4.273438 -7.597656 C 3.617188 -7.597656 3.085938 -7.472656 2.710938 -7.167969 L 2.234375 -6.328125 L 2.234375 -7.402344 L 1.035156 -7.402344 L 1.035156 0 L 2.234375 0 L 2.234375 -3.660156 C 2.234375 -5.910156 2.917969 -6.648438 3.855469 -6.648438 C 4.695312 -6.648438 5.222656 -6.246094 5.335938 -5.40625 C 5.378906 -5.027344 5.390625 -4.625 5.390625 -3.96875 L 5.390625 0 L 6.59375 0 L 6.59375 -3.660156 C 6.59375 -5.910156 7.277344 -6.648438 8.214844 -6.648438 C 9.050781 -6.648438 9.582031 -6.246094 9.695312 -5.40625 C 9.738281 -5.027344 9.75 -4.625 9.75 -3.96875 L 9.75 0 L 10.953125 0 L 10.953125 -4.527344 C 10.953125 -5.125 10.9375 -5.421875 10.882812 -5.796875 Z M 10.882812 -5.796875 "/></g></g></g><g fill="#fffcef" fill-opacity="1"><g transform="translate(185.131806, 114.502733)"><g><path d="M 7.109375 -3.910156 C 7.109375 -6.078125 5.980469 -7.597656 3.9375 -7.597656 C 1.914062 -7.597656 0.417969 -6.078125 0.417969 -3.675781 C 0.417969 -1.0625 1.859375 0.195312 3.785156 0.195312 C 5.308594 0.195312 6.71875 -0.601562 7.011719 -2.390625 L 5.753906 -2.390625 C 5.585938 -1.328125 4.804688 -0.726562 3.839844 -0.726562 C 2.75 -0.726562 1.828125 -1.382812 1.71875 -3.339844 L 7.082031 -3.339844 C 7.109375 -3.605469 7.109375 -3.800781 7.109375 -3.910156 Z M 3.910156 -6.675781 C 5.125 -6.675781 5.785156 -5.796875 5.894531 -4.261719 L 1.730469 -4.261719 C 1.871094 -5.839844 2.738281 -6.675781 3.910156 -6.675781 Z M 3.910156 -6.675781 "/></g></g></g><g fill="#fffcef" fill-opacity="1"><g transform="translate(193.120805, 114.502733)"><g><path d="M 7.265625 -5.433594 C 7.152344 -6.734375 6.246094 -7.597656 4.625 -7.597656 C 3.871094 -7.597656 3.324219 -7.472656 2.695312 -6.984375 L 2.234375 -6.132812 L 2.234375 -7.402344 L 1.035156 -7.402344 L 1.035156 0 L 2.234375 0 L 2.234375 -3.253906 C 2.234375 -5.785156 3.214844 -6.648438 4.371094 -6.648438 C 5.519531 -6.648438 5.992188 -6.007812 6.0625 -5.140625 C 6.089844 -4.761719 6.089844 -4.457031 6.089844 -4.078125 L 6.089844 0 L 7.292969 0 L 7.292969 -4.164062 C 7.292969 -4.761719 7.292969 -5.058594 7.265625 -5.433594 Z M 7.265625 -5.433594 "/></g></g></g><g fill="#fffcef" fill-opacity="1"><g transform="translate(201.72433, 114.502733)"><g><path d="M 2.472656 -6.425781 L 3.855469 -6.425781 L 3.855469 -7.347656 L 2.472656 -7.347656 L 2.472656 -9.066406 L 1.269531 -9.066406 L 1.269531 -7.347656 L 0.28125 -7.347656 L 0.28125 -6.425781 L 1.269531 -6.425781 L 1.269531 -2.109375 C 1.269531 -1.691406 1.269531 -1.382812 1.285156 -1.1875 C 1.355469 -0.265625 1.828125 0.113281 2.75 0.113281 C 3.085938 0.113281 3.421875 0.0976562 3.773438 0.0429688 L 3.773438 -0.839844 C 2.835938 -0.726562 2.542969 -0.878906 2.488281 -1.59375 C 2.472656 -1.789062 2.472656 -1.914062 2.472656 -2.164062 Z M 2.472656 -6.425781 "/></g></g></g><g fill="#fffcef" fill-opacity="1"><g transform="translate(206.41724, 114.502733)"><g/></g></g><g fill="#fffcef" fill-opacity="1"><g transform="translate(209.755411, 114.502733)"><g><path d="M 4.386719 -9.835938 C 2.613281 -9.835938 1.171875 -8.785156 1.171875 -7.125 C 1.171875 -5.53125 2.359375 -4.847656 4.066406 -4.457031 C 5.753906 -4.066406 6.425781 -3.535156 6.425781 -2.359375 C 6.425781 -1.355469 5.53125 -0.753906 4.429688 -0.753906 C 3.171875 -0.753906 2.289062 -1.464844 2.011719 -2.738281 L 0.726562 -2.738281 C 0.9375 -0.878906 2.277344 0.195312 4.398438 0.195312 C 6.257812 0.195312 7.710938 -0.894531 7.710938 -2.585938 C 7.710938 -4.21875 6.648438 -5.085938 4.527344 -5.574219 C 3.058594 -5.910156 2.457031 -6.355469 2.457031 -7.402344 C 2.457031 -8.410156 3.269531 -8.882812 4.289062 -8.882812 C 5.503906 -8.882812 6.214844 -8.1875 6.328125 -6.96875 L 7.613281 -6.96875 C 7.433594 -8.617188 6.382812 -9.835938 4.386719 -9.835938 Z M 4.386719 -9.835938 "/></g></g></g><g fill="#fffcef" fill-opacity="1"><g transform="translate(218.247207, 114.502733)"><g><path d="M 4.09375 -7.597656 C 1.578125 -7.597656 0.417969 -5.796875 0.417969 -3.703125 C 0.417969 -1.621094 1.578125 0.195312 4.09375 0.195312 C 6.609375 0.195312 7.765625 -1.621094 7.765625 -3.703125 C 7.765625 -5.796875 6.609375 -7.597656 4.09375 -7.597656 Z M 4.09375 -0.726562 C 2.597656 -0.726562 1.730469 -1.96875 1.730469 -3.703125 C 1.730469 -5.449219 2.597656 -6.675781 4.09375 -6.675781 C 5.585938 -6.675781 6.453125 -5.449219 6.453125 -3.703125 C 6.453125 -1.96875 5.585938 -0.726562 4.09375 -0.726562 Z M 4.09375 -0.726562 "/></g></g></g><g fill="#fffcef" fill-opacity="1"><g transform="translate(226.752974, 114.502733)"><g><path d="M 2.332031 -8.828125 C 2.429688 -9.429688 3.03125 -9.640625 3.9375 -9.472656 L 3.9375 -10.464844 C 3.6875 -10.503906 3.394531 -10.53125 3.085938 -10.53125 C 1.984375 -10.53125 1.257812 -9.933594 1.132812 -8.855469 C 1.105469 -8.605469 1.089844 -8.242188 1.089844 -7.960938 L 1.089844 -7.347656 L 0.292969 -7.347656 L 0.292969 -6.425781 L 1.089844 -6.425781 L 1.089844 0 L 2.289062 0 L 2.289062 -6.425781 L 3.8125 -6.425781 L 3.8125 -7.347656 L 2.289062 -7.347656 L 2.289062 -8.074219 C 2.289062 -8.285156 2.304688 -8.632812 2.332031 -8.828125 Z M 2.332031 -8.828125 "/></g></g></g><g fill="#fffcef" fill-opacity="1"><g transform="translate(231.124657, 114.502733)"><g><path d="M 2.472656 -6.425781 L 3.855469 -6.425781 L 3.855469 -7.347656 L 2.472656 -7.347656 L 2.472656 -9.066406 L 1.269531 -9.066406 L 1.269531 -7.347656 L 0.28125 -7.347656 L 0.28125 -6.425781 L 1.269531 -6.425781 L 1.269531 -2.109375 C 1.269531 -1.691406 1.269531 -1.382812 1.285156 -1.1875 C 1.355469 -0.265625 1.828125 0.113281 2.75 0.113281 C 3.085938 0.113281 3.421875 0.0976562 3.773438 0.0429688 L 3.773438 -0.839844 C 2.835938 -0.726562 2.542969 -0.878906 2.488281 -1.59375 C 2.472656 -1.789062 2.472656 -1.914062 2.472656 -2.164062 Z M 2.472656 -6.425781 "/></g></g></g><g fill="#fffcef" fill-opacity="1"><g transform="translate(235.817567, 114.502733)"><g><path d="M 10.882812 -7.402344 L 9.597656 -7.402344 L 7.878906 -1.1875 L 6.230469 -7.402344 L 4.734375 -7.402344 L 3.113281 -1.144531 L 1.398438 -7.402344 L 0.015625 -7.402344 L 2.375 0 L 3.800781 0 L 5.449219 -6.230469 L 7.097656 0 L 8.519531 0 Z M 10.882812 -7.402344 "/></g></g></g><g fill="#fffcef" fill-opacity="1"><g transform="translate(247.102654, 114.502733)"><g><path d="M 5.28125 0 L 6.480469 0 C 6.371094 -0.824219 6.34375 -1.328125 6.34375 -1.886719 L 6.34375 -4.664062 C 6.34375 -4.988281 6.328125 -5.351562 6.300781 -5.644531 C 6.175781 -6.859375 5.433594 -7.597656 3.675781 -7.597656 C 2.039062 -7.597656 0.9375 -6.691406 0.824219 -5.113281 L 2.082031 -5.113281 C 2.164062 -6.132812 2.667969 -6.675781 3.675781 -6.675781 C 4.664062 -6.675781 5.058594 -6.230469 5.113281 -5.546875 C 5.140625 -5.265625 5.140625 -4.972656 5.140625 -4.652344 L 5.140625 -4.457031 L 4.664062 -4.457031 C 1.761719 -4.457031 0.503906 -3.589844 0.503906 -1.914062 C 0.503906 -0.542969 1.550781 0.195312 2.890625 0.195312 C 3.605469 0.195312 4.246094 0.0820312 4.75 -0.265625 L 5.15625 -1.0625 Z M 3.296875 -0.726562 C 2.390625 -0.726562 1.816406 -1.117188 1.816406 -2.011719 C 1.816406 -3.28125 3.101562 -3.714844 5.140625 -3.5625 L 5.140625 -2.808594 C 5.140625 -1.464844 4.414062 -0.726562 3.296875 -0.726562 Z M 3.296875 -0.726562 "/></g></g></g><g fill="#fffcef" fill-opacity="1"><g transform="translate(254.840254, 114.502733)"><g><path d="M 3.9375 -7.570312 C 3.589844 -7.570312 3.214844 -7.445312 2.90625 -7.234375 L 2.234375 -6.246094 L 2.234375 -7.402344 L 1.035156 -7.402344 L 1.035156 0 L 2.234375 0 L 2.234375 -4.21875 C 2.234375 -5.910156 3.183594 -6.648438 4.441406 -6.566406 L 4.441406 -7.472656 C 4.300781 -7.542969 4.136719 -7.570312 3.9375 -7.570312 Z M 3.9375 -7.570312 "/></g></g></g><g fill="#fffcef" fill-opacity="1"><g transform="translate(259.770605, 114.502733)"><g><path d="M 7.109375 -3.910156 C 7.109375 -6.078125 5.980469 -7.597656 3.9375 -7.597656 C 1.914062 -7.597656 0.417969 -6.078125 0.417969 -3.675781 C 0.417969 -1.0625 1.859375 0.195312 3.785156 0.195312 C 5.308594 0.195312 6.71875 -0.601562 7.011719 -2.390625 L 5.753906 -2.390625 C 5.585938 -1.328125 4.804688 -0.726562 3.839844 -0.726562 C 2.75 -0.726562 1.828125 -1.382812 1.71875 -3.339844 L 7.082031 -3.339844 C 7.109375 -3.605469 7.109375 -3.800781 7.109375 -3.910156 Z M 3.910156 -6.675781 C 5.125 -6.675781 5.785156 -5.796875 5.894531 -4.261719 L 1.730469 -4.261719 C 1.871094 -5.839844 2.738281 -6.675781 3.910156 -6.675781 Z M 3.910156 -6.675781 "/></g></g></g></svg>